{"title":"Take This Waltz 2011 HDRiP AC3-5 1 XviD-AXED","uid":7302016,"size":1485131610,"categoryP":"video","categoryS":"movies","magnet":"?xt=urn:btih:0406e5dcc31363e53f0fa8143d516efbae816bd0&amp;dn=Take+This+Waltz+2011+HDRiP+AC3-5+1+XviD-AXED&amp;tr=udp%3A%2F%2Ftracker.openbittorrent.com%3A80&amp;tr=udp%3A%2F%2Fopen.demonii.com%3A1337&amp;tr=udp%3A%2F%2Ftracker.coppersurfer.tk%3A6969&amp;tr=udp%3A%2F%2Fexodus.desync.com%3A6969","seeders":0,"leechers":1,"uploader":"HeroMaster","files":-1,"time":1338064793,"description":"Take.This.Waltz.2011.HDRiP.AC3-5.1.XviD-AXED\n\nIMDB:  &lt;a href=&quot;\nhttp://www.imdb.com/title/tt1592281/&quot; rel=&quot;nofollow&quot; target=&quot;_NEW&quot;&gt;\nhttp://www.imdb.com/title/tt1592281/&lt;/a&gt;\n\nPLOT INFO:\nA happily married woman falls for the artist who lives across the street. \n\n\nMEDIAINFO:\nGeneral\nFormat                                   : AVI\nFormat/Info                              : Audio Video Interleave\nFile size                                : 1.37 GiB\nDuration                                 : 1h 56mn\nOverall bit rate                         : 1 686 Kbps\n\nVideo\nID                                       : 0\nFormat                                   : MPEG-4 Visual\nFormat profile                           : Advanced Simple@L5\nFormat settings, BVOP                    : 2\nFormat settings, QPel                    : No\nFormat settings, GMC                     : No warppoints\nFormat settings, Matrix                  : Default (H.263)\nMuxing mode                              : Packed bitstream\nCodec ID                                 : XVID\nCodec ID/Hint                            : XviD\nDuration                                 : 1h 56mn\nBit rate                                 : 1 295 Kbps\nWidth                                    : 720 pixels\nHeight                                   : 400 pixels\nDisplay aspect ratio                     : 16:9\nFrame rate                               : 23.976 fps\nColor space                              : YUV\nChroma subsampling                       : 4:2:0\nBit depth                                : 8 bits\nScan type                                : Progressive\nCompression mode                         : Lossy\nBits/(Pixel*Frame)                       : 0.187\nStream size                              : 1.05 GiB (77%)\nWriting library                          : XviD 1.1.2 (UTC 2006-11-01)\n\nAudio\nID                                       : 1\nFormat                                   : AC-3\nFormat/Info                              : Audio Coding 3\nMode extension                           : CM (complete main)\nCodec ID                                 : 2000\nDuration                                 : 1h 56mn\nBit rate mode                            : Constant\nBit rate                                 : 384 Kbps\nChannel(s)                               : 6 channels\nChannel positions                        : Front: L C R, Side: L R, LFE\nSampling rate                            : 48.0 KHz\nBit depth                                : 16 bits\nCompression mode                         : Lossy\nStream size                              : 320 MiB (23%)\nAlignment                                : Aligned on interleaves\nInterleave, duration                     : 64 ms (1.53 video frames)\nInterleave, preload duration             : 192 ms\nTitle                                    : takethiswaltz\n\n\nSOURCE: \n720p wmv Digital VOD Rental\n\nNOTES: \nHeres the new film starring Seth Rogen, Michelle Williams &amp; Sarah Silverman \n(full frontal nudity from Williams &amp; Silverman too), and directed by Sarah Polley.The film hits theatres on June 7!\n\n\nPoster:\n\n &lt;a href=&quot;\nhttp://i.imgur.com/A0OyD.jpg&quot; rel=&quot;nofollow&quot; target=&quot;_NEW&quot;&gt;\nhttp://i.imgur.com/A0OyD.jpg&lt;/a&gt;\n\n\nScreenshots:\n\n &lt;a href=&quot;\nhttp://i.imgur.com/WgtM6.jpg&quot; rel=&quot;nofollow&quot; target=&quot;_NEW&quot;&gt;\nhttp://i.imgur.com/WgtM6.jpg&lt;/a&gt;\n\n\nENJOY!","torrent":{"xt":"urn:btih:0406e5dcc31363e53f0fa8143d516efbae816bd0","amp;dn":"Take+This+Waltz+2011+HDRiP+AC3-5+1+XviD-AXED","amp;tr":["udp%3A%2F%2Ftracker.openbittorrent.com%3A80","udp%3A%2F%2Fopen.demonii.com%3A1337","udp%3A%2F%2Ftracker.coppersurfer.tk%3A6969","udp%3A%2F%2Fexodus.desync.com%3A6969"],"infoHash":"0406e5dcc31363e53f0fa8143d516efbae816bd0","infoHashBuffer":{"type":"Buffer","data":[4,6,229,220,195,19,99,229,63,15,168,20,61,81,110,251,174,129,107,208]},"announce":[],"urlList":[]}}